<svg xmlns="http://www.w3.org/2000/svg" xmlns:xlink="http://www.w3.org/1999/xlink" viewBox="0 0 430 430" width="430" height="430" preserveAspectRatio="xMidYMid meet" style="width: 100%; height: 100%; transform: translate3d(0px, 0px, 0px); content-visibility: visible;"><defs><clipPath id="__lottie_element_51"><rect width="430" height="430" x="0" y="0"/></clipPath><clipPath id="__lottie_element_53"><path d="M0,0 L430,0 L430,430 L0,430z"/></clipPath><filter id="__lottie_element_59" x="-100%" y="-100%" width="300%" height="300%"><feGaussianBlur result="filter_result_0" stdDeviation="52.5 52.5" edgeMode="wrap"/></filter><g id="__lottie_element_60"><g clip-path="url(#__lottie_element_61)" transform="matrix(1,0,0,1,0,0)" opacity="1" style="display: block;"><g transform="matrix(1,0,0,1,-35,-34.99998474121094)" opacity="1" style="display: block;"><g opacity="1" transform="matrix(1,0,0,1,160.00999450683594,281.8210144042969)"><path stroke-linecap="round" stroke-linejoin="round" fill-opacity="0" class="secondary" stroke="rgb(8,168,138)" stroke-opacity="1" stroke-width="12.04" d=" M70.12999725341797,0 C70.12999725341797,0 -70.12999725341797,0 -70.12999725341797,0 M-70.12999725341797,-63.650001525878906 C-70.12999725341797,-63.650001525878906 70.12999725341797,-63.650001525878906 70.12999725341797,-63.650001525878906"/></g><g opacity="1" transform="matrix(1,0,0,1,129.91099548339844,370.0889892578125)"><path stroke-linecap="round" stroke-linejoin="round" fill-opacity="0" class="primary" stroke="rgb(18,19,49)" stroke-opacity="1" stroke-width="12.04" d=" M260.864990234375,-13.343000411987305 C260.864990234375,-13.343000411987305 -20.68600082397461,-13.343000411987305 -20.68600082397461,-13.343000411987305 C-31.368999481201172,-13.343000411987305 -40.029998779296875,-22.003999710083008 -40.029998779296875,-32.6870002746582 C-40.029998779296875,-32.6870002746582 -40.029998779296875,-207.49200439453125 -40.029998779296875,-207.49200439453125 C-40.029998779296875,-218.1750030517578 -31.368999481201172,-226.83599853515625 -20.68600082397461,-226.83599853515625 C-20.68600082397461,-226.83599853515625 260.864990234375,-226.83599853515625 260.864990234375,-226.83599853515625 C271.5480041503906,-226.83599853515625 280.2090148925781,-218.1750030517578 280.2090148925781,-207.49200439453125 C280.2090148925781,-207.49200439453125 280.2090148925781,-32.6870002746582 280.2090148925781,-32.6870002746582 C280.2090148925781,-22.003999710083008 271.5480041503906,-13.343000411987305 260.864990234375,-13.343000411987305z M14.107999801635742,-62.775001525878906 C14.107999801635742,-62.775001525878906 54.608001708984375,-62.775001525878906 54.608001708984375,-62.775001525878906 M14.343000411987305,-38.83599853515625 C14.343000411987305,-38.83599853515625 54.37300109863281,-38.83599853515625 54.37300109863281,-38.83599853515625 M173.46200561523438,-13.343000411987305 C173.46200561523438,-13.343000411987305 173.46200561523438,13.343000411987305 173.46200561523438,13.343000411987305 C173.46200561523438,13.343000411987305 40.029998779296875,13.343000411987305 40.029998779296875,13.343000411987305 C40.029998779296875,13.343000411987305 40.029998779296875,-13.343000411987305 40.029998779296875,-13.343000411987305 M13.343000411987305,-13.343000411987305 C13.343000411987305,-13.343000411987305 13.343000411987305,13.343000411987305 13.343000411987305,13.343000411987305 C13.343000411987305,13.343000411987305 -13.343000411987305,13.343000411987305 -13.343000411987305,13.343000411987305 C-13.343000411987305,13.343000411987305 -13.343000411987305,-13.343000411987305 -13.343000411987305,-13.343000411987305"/><path fill="rgb(255,0,0)" fill-opacity="1" d=" M173.46200561523438,-13.343000411987305 C173.46200561523438,-13.343000411987305 173.46200561523438,13.343000411987305 173.46200561523438,13.343000411987305 C173.46200561523438,13.343000411987305 40.029998779296875,13.343000411987305 40.029998779296875,13.343000411987305 C40.029998779296875,13.343000411987305 40.029998779296875,-13.343000411987305 40.029998779296875,-13.343000411987305 M13.343000411987305,-13.343000411987305 C13.343000411987305,-13.343000411987305 13.343000411987305,13.343000411987305 13.343000411987305,13.343000411987305 C13.343000411987305,13.343000411987305 -13.343000411987305,13.343000411987305 -13.343000411987305,13.343000411987305 C-13.343000411987305,13.343000411987305 -13.343000411987305,-13.343000411987305 -13.343000411987305,-13.343000411987305"/></g></g><g transform="matrix(1,0,0,1,-35,-35)" opacity="1" style="display: block;"><g opacity="1" transform="matrix(1,0,0,1,351.3760070800781,233.63499450683594)"><path stroke-linecap="round" stroke-linejoin="round" fill-opacity="0" class="primary" stroke="rgb(18,19,49)" stroke-opacity="1" stroke-width="12.04" d=" M32.29899978637695,16.364999771118164 C32.29899978637695,60.58100128173828 -3.5450000762939453,96.42500305175781 -47.76100158691406,96.42500305175781 C-91.97699737548828,96.42500305175781 -127.81999969482422,60.58100128173828 -127.81999969482422,16.364999771118164 C-127.81999969482422,-27.85099983215332 -91.97699737548828,-63.694000244140625 -47.76100158691406,-63.694000244140625 C-3.5450000762939453,-63.694000244140625 32.29899978637695,-27.85099983215332 32.29899978637695,16.364999771118164z M-48.00299835205078,-7.150000095367432 C-48.00299835205078,-28.409000396728516 -68.76799774169922,-45.016998291015625 -99.15399932861328,-45.016998291015625 M-48.00299835205078,40.005001068115234 C-48.00299835205078,61.263999938964844 -27.238000869750977,77.74800109863281 3.1480000019073486,77.74800109863281 M-120.26599884033203,50.33700180053711 C-110.97599792480469,24.16699981689453 -90.43499755859375,10.82699966430664 -71.1050033569336,16.367000579833984 M24.7450008392334,-17.604999542236328 C15.454999923706055,8.5649995803833 -4.7270002365112305,21.905000686645508 -24.05699920654297,16.364999771118164"/></g><g opacity="1" transform="matrix(1,0,0,1,303.614990234375,250)"><path stroke-linecap="round" stroke-linejoin="round" fill-opacity="0" class="secondary" stroke="rgb(8,168,138)" stroke-opacity="1" stroke-width="12.04" d=" M23.014999389648438,0 C23.014999389648438,12.711000442504883 12.711000442504883,23.014999389648438 0,23.014999389648438 C-12.711000442504883,23.014999389648438 -23.014999389648438,12.711000442504883 -23.014999389648438,0 C-23.014999389648438,-12.711000442504883 -12.711000442504883,-23.014999389648438 0,-23.014999389648438 C12.711000442504883,-23.014999389648438 23.014999389648438,-12.711000442504883 23.014999389648438,0z"/></g></g></g></g><clipPath id="__lottie_element_61"><path d="M0,0 L430,0 L430,430 L0,430z"/></clipPath><mask id="__lottie_element_60_1" mask-type="alpha"><use xmlns:ns1="http://www.w3.org/1999/xlink" ns1:href="#__lottie_element_60"/></mask></defs><g clip-path="url(#__lottie_element_51)"><g clip-path="url(#__lottie_element_53)" transform="matrix(1,0,0,1,0,0)" opacity="1" style="display: block;"><g mask="url(#__lottie_element_60_1)" style="display: block;"><g filter="url(#__lottie_element_59)" transform="matrix(-0.1683877855539322,-2.394085645675659,2.394085645675659,-0.1683877855539322,271.9410095214844,219.4600067138672)" opacity="1"><g class="design" opacity="1" transform="matrix(1,0,0,1,0,0)"><path class="primary" fill="rgb(75,225,236)" fill-opacity="1" d=" M0,-250 C137.97500610351562,-250 250,-137.97500610351562 250,0 C250,137.97500610351562 137.97500610351562,250 0,250 C-137.97500610351562,250 -250,137.97500610351562 -250,0 C-250,-137.97500610351562 -137.97500610351562,-250 0,-250z"/></g><g class="design" opacity="1" transform="matrix(1,0,0,1,113.24199676513672,-118.88400268554688)"><path class="secondary" fill="rgb(203,94,238)" fill-opacity="1" d=" M0,-176.5 C97.47799682617188,-176.5 176.5,-97.47799682617188 176.5,0 C176.5,97.47799682617188 97.47799682617188,176.5 0,176.5 C-43.948001861572266,176.5 -74.39600372314453,142.4429931640625 -105.29000091552734,115.86900329589844 C-142.92100524902344,83.5 -176.5,53.53099822998047 -176.5,0 C-176.5,-97.47799682617188 -97.47799682617188,-176.5 0,-176.5z"/></g></g></g></g></g></svg>